<svg xmlns="http://www.w3.org/2000/svg" width="1500" height="900" viewBox="0 0 1500 900"><style>text{font-family:Arial,sans-serif;fill:#162536}.t{font-size:28px;font-weight:700;fill:#fff}.l{font-size:20px;font-weight:700}.b{font-size:16px;font-weight:600}.s{font-size:13px;fill:#425466}.n{fill:#fff;stroke:#6b8bab;stroke-width:2}.a{stroke:#526174;stroke-width:3;fill:none;marker-end:url(#m)}</style><defs><marker id="m" markerWidth="10" markerHeight="10" refX="9" refY="5" orient="auto"><path d="M0 0L10 5L0 10z" fill="#526174"/></marker></defs><rect width="1500" height="900" fill="#f7f9fc"/><rect x="25" y="20" width="1450" height="65" rx="12" fill="#173b5c"/><text x="55" y="61" class="t">Computer Science Educational RAG · Phase 1</text><rect x="35" y="110" width="1430" height="220" rx="14" fill="#e7f3ff" stroke="#94bee1"/><text x="60" y="145" class="l">1 · OFFLINE KNOWLEDGE BUILD</text><g class="n"><rect x="60" y="175" width="175" height="75" rx="10"/><rect x="275" y="175" width="175" height="75" rx="10"/><rect x="490" y="175" width="175" height="75" rx="10"/><rect x="705" y="175" width="175" height="75" rx="10"/><rect x="920" y="175" width="175" height="75" rx="10"/><rect x="1135" y="175" width="270" height="75" rx="10" fill="#d4efd5"/></g><text x="147" y="208" text-anchor="middle" class="b">Data / PDFs</text><text x="147" y="230" text-anchor="middle" class="s">books · papers · schemes</text><text x="362" y="208" text-anchor="middle" class="b">Extract + OCR</text><text x="362" y="230" text-anchor="middle" class="s">PyMuPDF · PaddleOCR</text><text x="577" y="208" text-anchor="middle" class="b">Metadata</text><text x="577" y="230" text-anchor="middle" class="s">level · year · source</text><text x="792" y="208" text-anchor="middle" class="b">Educational chunks</text><text x="792" y="230" text-anchor="middle" class="s">parent/child + enrichment</text><text x="1007" y="208" text-anchor="middle" class="b">Indexes</text><text x="1007" y="230" text-anchor="middle" class="s">Chroma · BM25 · SQLite</text><text x="1270" y="208" text-anchor="middle" class="b">READY manifest</text><text x="1270" y="230" text-anchor="middle" class="s">immutable build identity</text><path d="M235 212H270M450 212H485M665 212H700M880 212H915M1095 212H1130" class="a"/><rect x="35" y="360" width="1430" height="300" rx="14" fill="#ecf9e8" stroke="#9bc88e"/><text x="60" y="395" class="l">2 · ONLINE LANGGRAPH QUERY WORKFLOW</text><g class="n"><rect x="60" y="430" width="175" height="75" rx="10"/><rect x="275" y="430" width="175" height="75" rx="10"/><rect x="490" y="430" width="175" height="75" rx="10"/><rect x="705" y="430" width="175" height="75" rx="10"/><rect x="920" y="430" width="175" height="75" rx="10"/><rect x="1135" y="430" width="270" height="75" rx="10" fill="#d4efd5"/></g><text x="147" y="463" text-anchor="middle" class="b">Question + memory</text><text x="362" y="463" text-anchor="middle" class="b">Understand query</text><text x="577" y="463" text-anchor="middle" class="b">Hybrid retrieve</text><text x="792" y="463" text-anchor="middle" class="b">BGE rerank</text><text x="1007" y="463" text-anchor="middle" class="b">Sufficiency check</text><text x="1270" y="463" text-anchor="middle" class="b">Context → answer</text><text x="147" y="485" text-anchor="middle" class="s">session / follow-up</text><text x="362" y="485" text-anchor="middle" class="s">intent · category · level</text><text x="577" y="485" text-anchor="middle" class="s">exact + dense + BM25</text><text x="792" y="485" text-anchor="middle" class="s">cross-encoder evidence</text><text x="1007" y="485" text-anchor="middle" class="s">rewrite once / abstain</text><text x="1270" y="485" text-anchor="middle" class="s">compress + authority</text><path d="M235 467H270M450 467H485M665 467H700M880 467H915M1095 467H1130" class="a"/><rect x="440" y="545" width="620" height="70" rx="10" class="n"/><text x="750" y="575" text-anchor="middle" class="b">Exact scheme → official answer</text><text x="750" y="597" text-anchor="middle" class="s">Otherwise → GPT-4.1-mini grounded generation</text><path d="M1270 505V540H1065" class="a"/><rect x="35" y="690" width="1430" height="170" rx="14" fill="#fff4dc" stroke="#dfbd70"/><text x="60" y="725" class="l">3 · VALIDATION, OBSERVABILITY, AND EVALUATION</text><g class="n"><rect x="60" y="755" width="220" height="65" rx="10"/><rect x="330" y="755" width="220" height="65" rx="10"/><rect x="600" y="755" width="220" height="65" rx="10"/><rect x="870" y="755" width="220" height="65" rx="10"/><rect x="1140" y="755" width="265" height="65" rx="10" fill="#ffe2a8"/></g><text x="170" y="783" text-anchor="middle" class="b">Grounding + citations</text><text x="440" y="783" text-anchor="middle" class="b">Streamlit / FastAPI</text><text x="710" y="783" text-anchor="middle" class="b">live_answers.xlsx</text><text x="980" y="783" text-anchor="middle" class="b">Benchmark + RAGAS</text><text x="1272" y="783" text-anchor="middle" class="b">Excel + telemetry</text><path d="M280 787H325M550 787H595M820 787H865M1090 787H1135" class="a"/></svg>
